<?xml version="1.0" encoding="utf-8"?>
<!-- Generator: Adobe Illustrator 15.0.0, SVG Export Plug-In  -->
<!DOCTYPE svg PUBLIC "-//W3C//DTD SVG 1.1//EN" "http://www.w3.org/Graphics/SVG/1.1/DTD/svg11.dtd" [
	<!ENTITY ns_flows "http://ns.adobe.com/Flows/1.0/">
]>
<svg version="1.1"
	 xmlns="http://www.w3.org/2000/svg" xmlns:xlink="http://www.w3.org/1999/xlink" xmlns:a="http://ns.adobe.com/AdobeSVGViewerExtensions/3.0/"
	 x="0px" y="0px" width="62px" height="60px" viewBox="-1.282 -1.614 62 60"
	 overflow="visible" enable-background="new -1.282 -1.614 62 60" xml:space="preserve">
<defs>
</defs>
<radialGradient id="SVGID_1_" cx="38.0674" cy="26.7891" r="29.1331" gradientUnits="userSpaceOnUse">
	<stop  offset="0" style="stop-color:#A6C9EA"/>
	<stop  offset="1" style="stop-color:#1E2759"/>
</radialGradient>
<path fill="url(#SVGID_1_)" d="M5.607,21.587c3.408,0.576,5.329,3.216,6.434,6.528c1.871-1.393,3.936-2.305,6.191-2.305
	c4.993,0,6.961,4.225,7.394,5.857c2.16-2.641,5.04-4.992,8.208-4.992c1.729,0,3.265,0.576,4.465,1.824
	c2.4,2.496,2.977,6.432,2.977,9.937c0,6.384-1.873,13.537-4.416,17.233c-0.193,0.288-0.576,0.432-0.912,0.432
	c-0.576,0-1.009-0.432-1.009-1.056c0-0.24,0.048-0.433,0.144-0.624c2.305-3.265,4.033-10.033,4.033-15.985
	c0-4.321-1.104-9.793-5.377-9.793c-3.408,0-6.625,4.464-7.344,5.472c0.479,1.537,0.768,3.793,0.768,6.241
	c0,7.633-2.256,15.985-6.576,15.985c-0.769,0-1.441-0.288-1.969-0.721c-0.768-0.815-1.152-2.16-1.152-4.224
	c0-4.896,2.736-12.529,6.625-17.714c-0.385-1.729-1.104-3.12-2.112-4.225c-1.009-1.008-2.304-1.631-3.888-1.631
	c-1.921,0-3.793,0.959-5.473,2.543c0.576,2.449,0.768,5.713,0.768,8.497c0,9.073-3.072,17.665-8.017,17.665
	C2.92,56.534,1,54.47,1,50.293c0-5.855,3.792-15.697,9.265-20.594c-0.96-3.6-2.641-5.568-5.089-6.049
	c-0.48-0.096-0.912-0.479-0.912-1.008c0-0.623,0.528-1.056,1.104-1.056H5.607z M10.793,31.86
	c-4.369,5.089-7.682,13.105-7.682,18.434c0,0.625,0.049,4.273,2.305,4.273c3.12,0,5.809-7.441,5.809-15.698
	C11.225,36.18,11.033,33.924,10.793,31.86z M24.714,36.229c-3.072,5.184-5.137,11.232-5.137,15.169c0,0.672,0.097,3.024,1.056,3.024
	c2.017,0,4.273-5.953,4.369-13.586C25.002,39.252,24.953,37.813,24.714,36.229z"/>
<radialGradient id="SVGID_2_" cx="38.0674" cy="26.7891" r="29.1331" gradientUnits="userSpaceOnUse">
	<stop  offset="0" style="stop-color:#A6C9EA"/>
	<stop  offset="1" style="stop-color:#1E2759"/>
</radialGradient>
<path fill="url(#SVGID_2_)" d="M5.368,57.534C2.892,57.534,0,55.637,0,50.293c0-5.99,3.65-15.659,9.135-20.91
	c-0.861-2.816-2.224-4.373-4.151-4.751c-0.997-0.199-1.72-1.035-1.72-1.989c0-1.134,0.944-2.056,2.104-2.056l0.406,0.014
	c3.042,0.515,5.31,2.521,6.755,5.972c1.885-1.17,3.799-1.762,5.703-1.762c4.167,0,6.595,2.644,7.734,4.958
	c1.98-2.082,4.711-4.093,7.867-4.093c2.052,0,3.845,0.737,5.186,2.131c2.16,2.246,3.256,5.822,3.256,10.63
	c0,6.552-1.889,13.872-4.593,17.801c-0.353,0.528-1.021,0.864-1.735,0.864c-1.146,0-2.009-0.884-2.009-2.056
	c0-0.385,0.081-0.735,0.249-1.071l0.078-0.129c2.194-3.109,3.85-9.733,3.85-15.409c0-2.062-0.316-8.793-4.377-8.793
	c-1.781,0-4.043,1.694-6.248,4.665c0.43,1.618,0.672,3.785,0.672,6.048c0,8.44-2.603,16.985-7.576,16.985
	c-0.947,0-1.847-0.327-2.603-0.947l-0.095-0.088c-0.971-1.031-1.424-2.592-1.424-4.909c0-5.126,2.793-12.745,6.543-17.931
	c-0.354-1.326-0.936-2.42-1.77-3.334c-1.852-1.848-4.824-1.722-7.521,0.593c0.577,2.841,0.667,6.275,0.667,8.143
	C14.385,48.144,11.287,57.534,5.368,57.534L5.368,57.534z M9.219,32.205C4.889,37.249,2,45.316,2,50.293
	c0,2.633,0.811,4.414,2.221,5.016c-1.34-0.634-2.109-2.411-2.109-5.016C2.111,45.018,5.114,37.462,9.219,32.205L9.219,32.205z
	 M19.303,54.889c0.123,0.096,0.278,0.196,0.462,0.277c-0.772-0.518-1.188-1.812-1.188-3.769c0-3.98,1.937-9.866,4.963-15.141
	c-2.971,4.741-5.075,10.888-5.075,15.141C18.465,53.107,18.738,54.25,19.303,54.889L19.303,54.889z M35.956,54.918
	c-0.012,0.034-0.018,0.07-0.018,0.128c0.06,0.054,0.11,0.035,0.126,0.027c2.428-3.54,4.211-10.549,4.211-16.637
	c0-4.272-0.908-7.383-2.697-9.243c-0.726-0.755-1.615-1.23-2.652-1.422c3.273,0.736,5.189,4.606,5.189,10.665
	C40.115,44.526,38.369,51.431,35.956,54.918L35.956,54.918z M25.461,34.484l0.242,1.596c0.262,1.735,0.299,3.312,0.299,4.757
	c-0.066,5.286-1.26,10.879-3.213,13.321c2.127-2.446,3.373-8.29,3.373-13.801C26.162,38.087,25.907,35.953,25.461,34.484
	L25.461,34.484z M10.045,34.445c-3.426,4.822-5.934,11.371-5.934,15.849c0,0.134,0.016,3.273,1.305,3.273
	c1.914,0,4.809-5.862,4.809-14.698C10.225,37.206,10.148,35.726,10.045,34.445L10.045,34.445z M11.662,30.681l0.123,1.063
	c0.205,1.755,0.439,4.151,0.439,7.124c0,5.63-1.279,11.573-3.493,14.623c2.175-2.834,3.653-8.326,3.653-14.623
	C12.385,36.977,12.291,33.414,11.662,30.681L11.662,30.681z M23.99,39.671c-2.093,4.262-3.413,8.706-3.413,11.727
	c0,0.836,0.119,1.593,0.255,1.954c0.945-0.596,3.074-4.986,3.17-12.528C24.002,40.428,23.998,40.046,23.99,39.671L23.99,39.671z
	 M25.329,33.611l0.034,0.228l0.217-0.304c1.148-1.608,2.675-3.401,4.416-4.582c-1.418,0.919-2.651,2.194-3.596,3.349L25.329,33.611
	L25.329,33.611z M18.09,26.829c1.746,0,3.336,0.665,4.595,1.924c0.983,1.077,1.697,2.352,2.146,3.816l-0.171-0.645
	c-0.056-0.209-1.411-5.113-6.427-5.113c-1.859,0-3.689,0.689-5.596,2.107l-1.086,0.808l0.029,0.249l0.351-0.331
	C13.885,27.802,16.014,26.829,18.09,26.829L18.09,26.829z M5.271,22.637c0.015,0,0.052,0.023,0.101,0.033
	c2.837,0.557,4.81,2.835,5.859,6.771l0.076,0.284l0.156-0.182l-0.371-1.112c-1.153-3.461-2.977-5.374-5.57-5.845H5.368
	c-0.036,0-0.104,0.021-0.104,0.056C5.264,22.639,5.267,22.637,5.271,22.637L5.271,22.637z"/>
<radialGradient id="SVGID_3_" cx="38.0684" cy="26.7896" r="29.134" gradientUnits="userSpaceOnUse">
	<stop  offset="0" style="stop-color:#A6C9EA"/>
	<stop  offset="1" style="stop-color:#1E2759"/>
</radialGradient>
<path fill="url(#SVGID_3_)" d="M30.376,20.228c-2.491-3.618-4.983-7.236-7.475-10.855c-0.962-1.396-3.259-0.073-2.287,1.338
	c2.491,3.618,4.983,7.236,7.475,10.855C29.051,22.962,31.348,21.639,30.376,20.228L30.376,20.228z"/>
<radialGradient id="SVGID_4_" cx="38.0674" cy="26.79" r="29.1333" gradientUnits="userSpaceOnUse">
	<stop  offset="0" style="stop-color:#A6C9EA"/>
	<stop  offset="1" style="stop-color:#1E2759"/>
</radialGradient>
<path fill="url(#SVGID_4_)" d="M39.14,18.121c0.942-5.412,1.884-10.824,2.826-16.237c0.329-1.892-2.562-2.7-2.893-0.797
	c-0.942,5.412-1.884,10.824-2.826,16.237C35.918,19.215,38.809,20.024,39.14,18.121L39.14,18.121z"/>
<radialGradient id="SVGID_5_" cx="38.0679" cy="26.7905" r="29.132" gradientUnits="userSpaceOnUse">
	<stop  offset="0" style="stop-color:#A6C9EA"/>
	<stop  offset="1" style="stop-color:#1E2759"/>
</radialGradient>
<path fill="url(#SVGID_5_)" d="M47.3,23.163c3.391-2.372,6.781-4.744,10.172-7.117c1.572-1.1,0.075-3.702-1.514-2.59
	c-3.391,2.372-6.781,4.744-10.172,7.117C44.214,21.672,45.711,24.275,47.3,23.163L47.3,23.163z"/>
<radialGradient id="SVGID_6_" cx="38.0674" cy="26.7896" r="29.1326" gradientUnits="userSpaceOnUse">
	<stop  offset="0" style="stop-color:#A6C9EA"/>
	<stop  offset="1" style="stop-color:#1E2759"/>
</radialGradient>
<path fill="url(#SVGID_6_)" d="M48.77,31.639c2.516,0.432,5.031,0.863,7.547,1.295c1.892,0.324,2.701-2.566,0.797-2.893
	c-2.516-0.432-5.031-0.863-7.547-1.295C47.675,28.422,46.865,31.313,48.77,31.639L48.77,31.639z"/>
</svg>
