<?xml version="1.0" encoding="utf-8"?>
<!-- Generator: Adobe Illustrator 15.0.0, SVG Export Plug-In  -->
<!DOCTYPE svg PUBLIC "-//W3C//DTD SVG 1.1//EN" "http://www.w3.org/Graphics/SVG/1.1/DTD/svg11.dtd" [
	<!ENTITY ns_flows "http://ns.adobe.com/Flows/1.0/">
]>
<svg version="1.1"
	 xmlns="http://www.w3.org/2000/svg" xmlns:xlink="http://www.w3.org/1999/xlink" xmlns:a="http://ns.adobe.com/AdobeSVGViewerExtensions/3.0/"
	 x="0px" y="0px" width="92px" height="74px" viewBox="-0.875 -0.962 92 74"
	 overflow="visible" enable-background="new -0.875 -0.962 92 74" xml:space="preserve">
<defs>
</defs>
<radialGradient id="SVGID_1_" cx="38.0674" cy="26.7896" r="29.1326" gradientUnits="userSpaceOnUse">
	<stop  offset="0" style="stop-color:#A6C9EA"/>
	<stop  offset="1" style="stop-color:#1E2759"/>
</radialGradient>
<path fill="url(#SVGID_1_)" d="M5.607,21.587c3.408,0.576,5.329,3.216,6.434,6.528c1.871-1.393,3.936-2.305,6.191-2.305
	c4.993,0,6.961,4.225,7.394,5.857c2.16-2.641,5.04-4.992,8.208-4.992c1.729,0,3.265,0.576,4.465,1.824
	c2.4,2.496,2.977,6.432,2.977,9.937c0,6.384-1.873,13.537-4.416,17.233c-0.193,0.288-0.576,0.432-0.912,0.432
	c-0.576,0-1.009-0.432-1.009-1.056c0-0.24,0.048-0.433,0.144-0.624c2.305-3.265,4.033-10.033,4.033-15.985
	c0-4.321-1.104-9.793-5.377-9.793c-3.408,0-6.625,4.464-7.344,5.472c0.479,1.537,0.768,3.793,0.768,6.241
	c0,7.633-2.256,15.985-6.576,15.985c-0.769,0-1.441-0.288-1.969-0.721c-0.768-0.815-1.152-2.16-1.152-4.224
	c0-4.896,2.736-12.529,6.625-17.714c-0.385-1.729-1.104-3.12-2.112-4.225c-1.009-1.008-2.304-1.631-3.888-1.631
	c-1.921,0-3.793,0.959-5.473,2.543c0.576,2.449,0.768,5.713,0.768,8.497c0,9.073-3.072,17.665-8.017,17.665
	C2.92,56.534,1,54.47,1,50.293c0-5.855,3.792-15.697,9.265-20.594c-0.96-3.6-2.641-5.568-5.089-6.049
	c-0.48-0.096-0.912-0.479-0.912-1.008c0-0.623,0.528-1.056,1.104-1.056H5.607z M10.793,31.86
	c-4.369,5.089-7.682,13.105-7.682,18.434c0,0.625,0.049,4.273,2.305,4.273c3.12,0,5.809-7.441,5.809-15.698
	C11.225,36.18,11.033,33.924,10.793,31.86z M24.714,36.229c-3.072,5.184-5.137,11.232-5.137,15.169c0,0.672,0.097,3.024,1.056,3.024
	c2.017,0,4.273-5.953,4.369-13.586C25.002,39.252,24.953,37.813,24.714,36.229z"/>
<radialGradient id="SVGID_2_" cx="38.0674" cy="26.7896" r="29.1326" gradientUnits="userSpaceOnUse">
	<stop  offset="0" style="stop-color:#A6C9EA"/>
	<stop  offset="1" style="stop-color:#1E2759"/>
</radialGradient>
<path fill="url(#SVGID_2_)" d="M5.368,57.534C2.892,57.534,0,55.637,0,50.293c0-5.99,3.65-15.659,9.135-20.91
	c-0.861-2.816-2.224-4.373-4.151-4.751c-0.997-0.199-1.72-1.035-1.72-1.989c0-1.134,0.944-2.056,2.104-2.056l0.406,0.014
	c3.042,0.515,5.31,2.521,6.755,5.972c1.885-1.17,3.799-1.762,5.703-1.762c4.167,0,6.595,2.644,7.734,4.958
	c1.98-2.082,4.711-4.093,7.867-4.093c2.052,0,3.845,0.737,5.186,2.131c2.16,2.246,3.256,5.822,3.256,10.63
	c0,6.552-1.889,13.872-4.593,17.801c-0.353,0.528-1.021,0.864-1.735,0.864c-1.146,0-2.009-0.884-2.009-2.056
	c0-0.385,0.081-0.735,0.249-1.071l0.078-0.129c2.194-3.109,3.85-9.733,3.85-15.409c0-2.062-0.316-8.793-4.377-8.793
	c-1.781,0-4.043,1.694-6.248,4.665c0.43,1.618,0.672,3.785,0.672,6.048c0,8.44-2.603,16.985-7.576,16.985
	c-0.947,0-1.847-0.327-2.603-0.947l-0.095-0.088c-0.971-1.031-1.424-2.592-1.424-4.909c0-5.126,2.793-12.745,6.543-17.931
	c-0.354-1.326-0.936-2.42-1.77-3.334c-1.852-1.848-4.824-1.722-7.521,0.593c0.577,2.841,0.667,6.275,0.667,8.143
	C14.385,48.144,11.287,57.534,5.368,57.534L5.368,57.534z M9.219,32.205C4.889,37.249,2,45.316,2,50.293
	c0,2.633,0.811,4.414,2.221,5.016c-1.34-0.634-2.109-2.411-2.109-5.016C2.111,45.018,5.114,37.462,9.219,32.205L9.219,32.205z
	 M19.303,54.889c0.123,0.096,0.278,0.196,0.462,0.277c-0.772-0.518-1.188-1.812-1.188-3.769c0-3.98,1.937-9.866,4.963-15.141
	c-2.971,4.741-5.075,10.888-5.075,15.141C18.465,53.107,18.738,54.25,19.303,54.889L19.303,54.889z M35.956,54.918
	c-0.012,0.034-0.018,0.07-0.018,0.128c0.06,0.054,0.11,0.035,0.126,0.027c2.428-3.54,4.211-10.549,4.211-16.637
	c0-4.272-0.908-7.383-2.697-9.243c-0.726-0.755-1.615-1.23-2.652-1.422c3.273,0.736,5.189,4.606,5.189,10.665
	C40.115,44.526,38.369,51.431,35.956,54.918L35.956,54.918z M25.461,34.484l0.242,1.596c0.262,1.735,0.299,3.312,0.299,4.757
	c-0.066,5.286-1.26,10.879-3.213,13.321c2.127-2.446,3.373-8.29,3.373-13.801C26.162,38.087,25.907,35.953,25.461,34.484
	L25.461,34.484z M10.045,34.445c-3.426,4.822-5.934,11.371-5.934,15.849c0,0.134,0.016,3.273,1.305,3.273
	c1.914,0,4.809-5.862,4.809-14.698C10.225,37.206,10.148,35.726,10.045,34.445L10.045,34.445z M11.662,30.681l0.123,1.063
	c0.205,1.755,0.439,4.151,0.439,7.124c0,5.63-1.279,11.573-3.493,14.623c2.175-2.834,3.653-8.326,3.653-14.623
	C12.385,36.977,12.291,33.414,11.662,30.681L11.662,30.681z M23.99,39.671c-2.093,4.262-3.413,8.706-3.413,11.727
	c0,0.836,0.119,1.593,0.255,1.954c0.945-0.596,3.074-4.986,3.17-12.528C24.002,40.428,23.998,40.046,23.99,39.671L23.99,39.671z
	 M25.329,33.611l0.034,0.228l0.217-0.304c1.148-1.608,2.675-3.401,4.416-4.582c-1.418,0.919-2.651,2.194-3.596,3.349L25.329,33.611
	L25.329,33.611z M18.09,26.829c1.746,0,3.336,0.665,4.595,1.924c0.983,1.077,1.697,2.352,2.146,3.816l-0.171-0.645
	c-0.056-0.209-1.411-5.113-6.427-5.113c-1.859,0-3.689,0.689-5.596,2.107l-1.086,0.808l0.029,0.249l0.351-0.331
	C13.885,27.802,16.014,26.829,18.09,26.829L18.09,26.829z M5.271,22.637c0.015,0,0.052,0.023,0.101,0.033
	c2.837,0.557,4.81,2.835,5.859,6.771l0.076,0.284l0.156-0.182l-0.371-1.112c-1.153-3.461-2.977-5.374-5.57-5.845H5.368
	c-0.036,0-0.104,0.021-0.104,0.056C5.264,22.639,5.267,22.637,5.271,22.637L5.271,22.637z"/>
<radialGradient id="SVGID_3_" cx="38.0664" cy="26.7896" r="29.1331" gradientUnits="userSpaceOnUse">
	<stop  offset="0" style="stop-color:#A6C9EA"/>
	<stop  offset="1" style="stop-color:#1E2759"/>
</radialGradient>
<path fill="url(#SVGID_3_)" d="M58.36,45.686c0,5.136-3.024,10.656-7.921,10.656c-3.312,0-5.52-2.928-5.52-7.393
	c0-1.344,0.191-2.592,0.672-3.889c0.144-0.432,0.576-0.768,1.008-0.768c0.576,0,1.008,0.527,1.008,1.057
	c0,0.191-0.048,0.336-0.096,0.479c-0.289,0.72-0.432,2.063-0.432,3.072c0,2.496,1.008,5.425,3.455,5.425
	c3.457,0,5.665-4.561,5.665-8.641c0-1.921-0.769-4.514-3.072-4.514c-1.824,0-2.448,1.537-2.448,2.689c0,1.92,1.439,1.92,2.256,1.92
	c0.625,0,1.104,0.48,1.104,1.056c0,0.288-0.097,1.056-1.296,1.056c-2.785,0-4.225-1.824-4.225-4.031
	c0-2.305,1.633-4.705,4.705-4.705C56.393,39.157,58.36,41.845,58.36,45.686z"/>
<radialGradient id="SVGID_4_" cx="38.0664" cy="26.7896" r="29.1331" gradientUnits="userSpaceOnUse">
	<stop  offset="0" style="stop-color:#A6C9EA"/>
	<stop  offset="1" style="stop-color:#1E2759"/>
</radialGradient>
<path fill="url(#SVGID_4_)" d="M50.439,57.342c-3.9,0-6.52-3.373-6.52-8.393c0-1.537,0.232-2.883,0.733-4.235
	c0.271-0.811,1.093-1.421,1.946-1.421c0.332,0,0.649,0.088,0.93,0.242c0.15-2.666,2.135-5.379,5.695-5.379
	c3.67,0,6.136,3.025,6.136,7.529C59.36,51.292,55.949,57.342,50.439,57.342L50.439,57.342z M46.59,45.328
	c-0.018,0-0.043,0.027-0.05,0.05c-0.427,1.154-0.62,2.28-0.62,3.572c0,3.884,1.773,6.393,4.52,6.393
	c4.275,0,6.921-5.013,6.921-9.656c0-3.359-1.624-5.529-4.136-5.529c-2.433,0-3.705,1.864-3.705,3.705
	c0,1.466,0.848,3.031,3.225,3.031c0.203,0,0.304-0.035,0.326-0.049c-0.03-0.023-0.061-0.062-0.135-0.062
	c-2.16,0-3.256-0.982-3.256-2.92c0-1.777,1.079-3.689,3.448-3.689c2.813,0,4.072,2.77,4.072,5.514c0,4.637-2.548,9.641-6.665,9.641
	c-3.061,0-4.455-3.33-4.455-6.425c0-1.009,0.131-2.516,0.503-3.444c0.014-0.045,0.024-0.082,0.024-0.107
	C46.605,45.333,46.598,45.328,46.59,45.328L46.59,45.328z M48.299,46.701c-0.135,0.61-0.219,1.442-0.219,2.201
	c0,1.778,0.654,4.425,2.455,4.425c2.75,0,4.665-4.026,4.665-7.641c0-0.144-0.023-3.514-2.072-3.514
	c-1.344,0-1.448,1.293-1.448,1.689c0,0.791,0.176,0.92,1.256,0.92c1.16,0,2.104,0.922,2.104,2.056c0,1.023-0.71,2.056-2.296,2.056
	C50.754,48.893,49.18,48.073,48.299,46.701L48.299,46.701z"/>
<radialGradient id="SVGID_5_" cx="38.0674" cy="26.7896" r="29.1326" gradientUnits="userSpaceOnUse">
	<stop  offset="0" style="stop-color:#A6C9EA"/>
	<stop  offset="1" style="stop-color:#1E2759"/>
</radialGradient>
<path fill="url(#SVGID_5_)" d="M66.471,26.051c1.297,0,1.297,1.777,1.297,3.312c0,2.256-0.816,5.377-1.488,8.161
	c-1.057,4.32-2.545,11.233-2.545,15.073c0,1.344,0.145,1.775,0.193,1.92c0.096,0.145,0.144,0.288,0.144,0.48
	c0,0.623-0.479,1.056-1.056,1.056c-1.345,0-1.441-2.112-1.441-3.456c0-3.84,1.441-10.753,2.354-14.449
	c1.056-4.369,1.728-6.816,1.728-8.785c0-0.96-0.048-1.584-0.192-1.824c-0.048-0.144-0.096-0.287-0.096-0.384
	c0-0.479,0.288-0.864,0.672-1.008C66.135,26.1,66.327,26.051,66.471,26.051z"/>
<radialGradient id="SVGID_6_" cx="38.0674" cy="26.7896" r="29.1326" gradientUnits="userSpaceOnUse">
	<stop  offset="0" style="stop-color:#A6C9EA"/>
	<stop  offset="1" style="stop-color:#1E2759"/>
</radialGradient>
<path fill="url(#SVGID_6_)" d="M63.016,57.054c-2.441,0-2.441-3.354-2.441-4.456c0-4.896,2.139-13.701,2.383-14.688l0.4-1.646
	c0.809-3.314,1.298-5.314,1.298-6.9c0-1.048-0.063-1.32-0.083-1.379l-0.057-0.126c-0.069-0.207-0.148-0.441-0.148-0.703
	c0-0.852,0.512-1.62,1.279-1.928c0.24-0.108,0.558-0.177,0.824-0.177c2.297,0,2.297,2.699,2.297,4.312
	c0,2.165-0.674,4.933-1.325,7.608l-0.19,0.787c-0.758,3.098-2.518,10.737-2.518,14.839c0,0.409,0.016,1.123,0.116,1.517
	c0.148,0.272,0.221,0.563,0.221,0.884C65.071,56.151,64.168,57.054,63.016,57.054L63.016,57.054z M66.385,27.144
	c0.198,0.411,0.271,1.025,0.271,2.22c0,1.827-0.511,3.915-1.355,7.375l-0.4,1.646c-0.864,3.501-2.325,10.43-2.325,14.214
	c0,2.142,0.371,2.43,0.412,2.455l0.029,0.001c0.056,0,0.056-0.018,0.056-0.056l-0.093-0.163c-0.066-0.2-0.244-0.729-0.244-2.237
	c0-4.319,1.8-12.146,2.574-15.311l0.19-0.788c0.624-2.562,1.269-5.211,1.269-7.136c0-0.62,0-2.071-0.271-2.32l-0.107,0.041
	c-0.016,0.012-0.029-0.025-0.029-0.03C66.365,27.083,66.375,27.113,66.385,27.144L66.385,27.144z"/>
<radialGradient id="SVGID_7_" cx="38.0684" cy="26.7896" r="29.1321" gradientUnits="userSpaceOnUse">
	<stop  offset="0" style="stop-color:#A6C9EA"/>
	<stop  offset="1" style="stop-color:#1E2759"/>
</radialGradient>
<path fill="url(#SVGID_7_)" d="M73.959,26.051c1.296,0,1.296,1.777,1.296,3.312c0,2.256-0.816,5.377-1.488,8.161
	c-1.056,4.32-2.544,11.233-2.544,15.073c0,1.344,0.144,1.775,0.191,1.92c0.096,0.145,0.145,0.288,0.145,0.48
	c0,0.623-0.48,1.056-1.057,1.056c-1.344,0-1.439-2.112-1.439-3.456c0-3.84,1.439-10.753,2.352-14.449
	c1.057-4.369,1.729-6.816,1.729-8.785c0-0.96-0.048-1.584-0.191-1.824c-0.049-0.144-0.097-0.287-0.097-0.384
	c0-0.479,0.288-0.864,0.672-1.008C73.623,26.1,73.814,26.051,73.959,26.051z"/>
<radialGradient id="SVGID_8_" cx="38.0684" cy="26.7896" r="29.1322" gradientUnits="userSpaceOnUse">
	<stop  offset="0" style="stop-color:#A6C9EA"/>
	<stop  offset="1" style="stop-color:#1E2759"/>
</radialGradient>
<path fill="url(#SVGID_8_)" d="M70.502,57.054c-2.439,0-2.439-3.354-2.439-4.456c0-4.896,2.137-13.701,2.381-14.688l0.4-1.646
	c0.811-3.314,1.299-5.314,1.299-6.9c0-1.048-0.064-1.32-0.084-1.379l-0.056-0.126c-0.069-0.207-0.148-0.441-0.148-0.703
	c0-0.852,0.513-1.62,1.279-1.928c0.241-0.108,0.558-0.177,0.825-0.177c2.296,0,2.296,2.699,2.296,4.312
	c0,2.165-0.674,4.933-1.325,7.608l-0.191,0.787c-0.757,3.098-2.516,10.737-2.516,14.839c0,0.409,0.016,1.123,0.115,1.517
	c0.148,0.272,0.221,0.563,0.221,0.884C72.559,56.151,71.655,57.054,70.502,57.054L70.502,57.054z M73.872,27.144
	c0.198,0.411,0.271,1.025,0.271,2.22c0,1.827-0.51,3.915-1.355,7.375l-0.4,1.646c-0.864,3.501-2.324,10.43-2.324,14.214
	c0,2.142,0.369,2.43,0.412,2.455l0.027,0.001c0.057,0,0.057-0.018,0.057-0.056l-0.092-0.163c-0.067-0.2-0.244-0.729-0.244-2.237
	c0-4.319,1.799-12.146,2.572-15.311l0.191-0.788c0.623-2.562,1.269-5.211,1.269-7.136c0-0.62,0-2.071-0.271-2.32l-0.107,0.041
	c-0.017,0.012-0.03-0.025-0.031-0.03C73.852,27.083,73.861,27.113,73.872,27.144L73.872,27.144z"/>
<radialGradient id="SVGID_9_" cx="38.0664" cy="26.7896" r="29.1329" gradientUnits="userSpaceOnUse">
	<stop  offset="0" style="stop-color:#A6C9EA"/>
	<stop  offset="1" style="stop-color:#1E2759"/>
</radialGradient>
<path fill="url(#SVGID_9_)" d="M79.479,40.933c-0.385,2.063-1.057,5.472-1.057,8.544c0,1.393,0.191,4.465,1.824,4.465
	c2.928,0,6.527-7.488,6.48-13.297c0-0.576,0.527-1.008,1.104-1.008s0.961,0.48,0.961,1.056c0,2.16-0.336,6.864-0.48,9.121
	c-0.145,2.017-0.48,5.952-1.729,10.081c1.584,0.912,2.785,2.496,2.785,4.32c0,0.576-0.48,1.056-1.057,1.056
	s-1.008-0.479-1.008-1.056c0-1.344-1.057-2.064-1.488-2.256c-2.113,5.424-6.816,8.881-11.09,8.881c-2.352,0-4.464-1.152-4.464-4.081
	c0-4.944,6.192-8.065,11.233-8.065c1.104,0,2.207,0.145,3.072,0.433c0.768-2.399,1.488-6.288,1.775-9.217
	c-1.199,3.36-3.744,6.145-6.096,6.145c-2.977,0-3.984-3.216-3.984-6.577c0-3.312,0.72-6.96,1.056-8.736
	c0.097-0.336,0.24-1.104,1.152-1.104c0.577,0,1.056,0.48,1.056,1.104L79.479,40.933z M83.99,60.951
	c-0.672-0.192-1.68-0.288-2.496-0.288c-3.984,0-9.072,2.545-9.072,5.953c0,1.535,1.295,2.256,2.592,2.256
	C78.326,68.872,82.119,65.75,83.99,60.951z"/>
<radialGradient id="SVGID_10_" cx="38.0664" cy="26.7896" r="29.1329" gradientUnits="userSpaceOnUse">
	<stop  offset="0" style="stop-color:#A6C9EA"/>
	<stop  offset="1" style="stop-color:#1E2759"/>
</radialGradient>
<path fill="url(#SVGID_10_)" d="M74.725,71.84c-3.37,0-5.464-1.947-5.464-5.081c0-5.423,6.325-9.065,12.233-9.065
	c0.838,0,1.656,0.077,2.387,0.223c0.252-0.917,0.5-1.997,0.721-3.134c-1.234,1.345-2.734,2.271-4.355,2.271
	c-3.121,0-4.984-2.833-4.984-7.577c0-3.266,0.669-6.793,1.029-8.688l0.082-0.385c0.398-1.461,1.359-1.768,2.097-1.768
	c1.134,0,2.056,0.943,2.056,2.104l-0.076,0.434l-0.053,0.288c-0.389,2.071-0.975,5.201-0.975,8.015c0,2.419,0.545,3.465,0.824,3.465
	c0.381,0,0.887-0.298,1.424-0.84c1.988-2.005,4.092-7.083,4.057-11.449c0-1.115,0.943-2.016,2.104-2.016
	c1.1,0,1.961,0.903,1.961,2.056c0,1.868-0.244,5.568-0.406,8.018l-0.076,1.167c-0.168,2.355-0.512,5.842-1.559,9.583
	c1.652,1.195,2.617,2.926,2.617,4.755c0,1.134-0.924,2.056-2.057,2.056c-1.107,0-2.008-0.922-2.008-2.056
	c0-0.226-0.053-0.421-0.131-0.586C83.775,68.526,79.23,71.84,74.725,71.84L74.725,71.84z M77.869,60.246
	c-3.397,0.998-6.608,3.301-6.608,6.514c0,2.497,1.884,3.016,3.187,3.075c-1.582-0.211-3.025-1.308-3.025-3.219
	C71.422,63.532,74.572,61.258,77.869,60.246L77.869,60.246z M81.494,61.663c-3.635,0-8.072,2.285-8.072,4.953
	c0,1.195,1.326,1.256,1.592,1.256c2.74,0,5.783-2.528,7.551-6.155C82.217,61.682,81.848,61.663,81.494,61.663L81.494,61.663z
	 M85.25,60.271l0.07,0.021l-0.398,1.022c-0.869,2.227-2.148,4.156-3.641,5.617c1.514-1.407,2.787-3.246,3.602-5.335l0.379-0.975
	l0.957,0.424c0.773,0.342,2.084,1.396,2.084,3.17c0.064-1.319-0.811-2.643-2.219-3.454l-0.688-0.396l0.229-0.76
	c0.898-2.973,1.316-5.833,1.539-8.089c-0.369,2.829-1.004,5.912-1.646,7.914L85.25,60.271L85.25,60.271z M78.47,40.637
	c-0.098,0.037-0.145,0.211-0.167,0.294l-0.047,0.231c-0.348,1.83-0.994,5.237-0.994,8.314c0,1.677,0.291,5.577,2.984,5.577
	c0.629,0,1.318-0.298,1.994-0.816c-0.664,0.468-1.332,0.704-1.994,0.704c-1.055,0-2.824-0.71-2.824-5.465
	c0-3,0.607-6.239,1.009-8.383l0.082-0.419C78.5,40.649,78.481,40.637,78.47,40.637L78.47,40.637z M85.635,49.625l1.66,0.372
	c0.006-0.086,0.012-0.171,0.018-0.255l0.076-1.164c0.16-2.423,0.402-6.084,0.402-7.886c-0.02-0.054-0.066-0.024-0.074-0.01
	C87.746,43.508,86.914,46.876,85.635,49.625L85.635,49.625z"/>
<radialGradient id="SVGID_11_" cx="38.0674" cy="26.7896" r="29.1326" gradientUnits="userSpaceOnUse">
	<stop  offset="0" style="stop-color:#A6C9EA"/>
	<stop  offset="1" style="stop-color:#1E2759"/>
</radialGradient>
<line fill="url(#SVGID_11_)" x1="29.232" y1="20.897" x2="21.758" y2="10.042"/>
<radialGradient id="SVGID_12_" cx="38.0684" cy="26.7886" r="29.1331" gradientUnits="userSpaceOnUse">
	<stop  offset="0" style="stop-color:#A6C9EA"/>
	<stop  offset="1" style="stop-color:#1E2759"/>
</radialGradient>
<path fill="url(#SVGID_12_)" d="M30.376,20.228c-2.491-3.618-4.983-7.236-7.475-10.855c-0.962-1.396-3.259-0.073-2.287,1.338
	c2.491,3.618,4.983,7.236,7.475,10.855C29.051,22.962,31.348,21.639,30.376,20.228L30.376,20.228z"/>
<radialGradient id="SVGID_13_" cx="38.0674" cy="26.7891" r="29.1312" gradientUnits="userSpaceOnUse">
	<stop  offset="0" style="stop-color:#A6C9EA"/>
	<stop  offset="1" style="stop-color:#1E2759"/>
</radialGradient>
<line fill="url(#SVGID_13_)" x1="37.693" y1="17.722" x2="40.52" y2="1.485"/>
<radialGradient id="SVGID_14_" cx="38.0674" cy="26.7891" r="29.1319" gradientUnits="userSpaceOnUse">
	<stop  offset="0" style="stop-color:#A6C9EA"/>
	<stop  offset="1" style="stop-color:#1E2759"/>
</radialGradient>
<path fill="url(#SVGID_14_)" d="M39.14,18.121c0.942-5.412,1.884-10.824,2.826-16.237c0.329-1.892-2.562-2.7-2.893-0.797
	c-0.942,5.412-1.884,10.824-2.826,16.237C35.918,19.215,38.809,20.024,39.14,18.121L39.14,18.121z"/>
<radialGradient id="SVGID_15_" cx="38.0674" cy="26.7896" r="29.1326" gradientUnits="userSpaceOnUse">
	<stop  offset="0" style="stop-color:#A6C9EA"/>
	<stop  offset="1" style="stop-color:#1E2759"/>
</radialGradient>
<line fill="url(#SVGID_15_)" x1="46.543" y1="21.868" x2="56.715" y2="14.75"/>
<radialGradient id="SVGID_16_" cx="38.0674" cy="26.7896" r="29.1326" gradientUnits="userSpaceOnUse">
	<stop  offset="0" style="stop-color:#A6C9EA"/>
	<stop  offset="1" style="stop-color:#1E2759"/>
</radialGradient>
<path fill="url(#SVGID_16_)" d="M47.3,23.163c3.391-2.372,6.781-4.744,10.172-7.117c1.572-1.1,0.075-3.702-1.514-2.59
	c-3.391,2.372-6.781,4.744-10.172,7.117C44.214,21.672,45.711,24.275,47.3,23.163L47.3,23.163z"/>
<radialGradient id="SVGID_17_" cx="38.0674" cy="26.7896" r="29.1326" gradientUnits="userSpaceOnUse">
	<stop  offset="0" style="stop-color:#A6C9EA"/>
	<stop  offset="1" style="stop-color:#1E2759"/>
</radialGradient>
<line fill="url(#SVGID_17_)" x1="49.168" y1="30.193" x2="56.715" y2="31.488"/>
<radialGradient id="SVGID_18_" cx="38.0674" cy="26.7896" r="29.1326" gradientUnits="userSpaceOnUse">
	<stop  offset="0" style="stop-color:#A6C9EA"/>
	<stop  offset="1" style="stop-color:#1E2759"/>
</radialGradient>
<path fill="url(#SVGID_18_)" d="M48.77,31.639c2.516,0.432,5.031,0.863,7.547,1.295c1.892,0.324,2.701-2.566,0.797-2.893
	c-2.516-0.432-5.031-0.863-7.547-1.295C47.675,28.422,46.865,31.313,48.77,31.639L48.77,31.639z"/>
</svg>
